# xmcd CD database file
#
# Track frame offsets:
#	150
#	20915
#	39237
#	56130
#	74407
#	96985
#	116822
#	132625
#	150595
#	173930
#
# Disc length: 2546 seconds
#
# Revision: 2
# Processed by: cddbd v1.5.2PL0 Copyright (c) Steve Scherf et al.
# Submitted via: CDex 1.70beta2
#
DISCID=9309f00a
DTITLE=3.6 MILK - 3.6 Milk
DYEAR=2001
DGENRE=Punk
TTITLE0=Sky
TTITLE1=Mi-To's Bar
TTITLE2=No One Care
TTITLE3=Long Beach
TTITLE4=California
TTITLE5=54 46 That's My Number
TTITLE6=L・B・D・A's
TTITLE7=I'm Stupid
TTITLE8=It's All Up To Me
TTITLE9=California 2
EXTD=YEAR: 2001
EXTT0=
EXTT1=
EXTT2=
EXTT3=
EXTT4=
EXTT5=
EXTT6=
EXTT7=
EXTT8=
EXTT9=
PLAYORDER=
